<svg id="visual" viewBox="0 0 1920 600" width="1920" height="600" xmlns="http://www.w3.org/2000/svg" xmlns:xlink="http://www.w3.org/1999/xlink" version="1.1"><rect x="0" y="0" width="1920" height="600" fill="#002233"></rect><path d="M0 426L45.7 426C91.3 426 182.7 426 274.2 420.8C365.7 415.7 457.3 405.3 548.8 404.5C640.3 403.7 731.7 412.3 823 433.7C914.3 455 1005.7 489 1097 489.7C1188.3 490.3 1279.7 457.7 1371.2 456.7C1462.7 455.7 1554.3 486.3 1645.8 497.8C1737.3 509.3 1828.7 501.7 1874.3 497.8L1920 494L1920 601L1874.3 601C1828.7 601 1737.3 601 1645.8 601C1554.3 601 1462.7 601 1371.2 601C1279.7 601 1188.3 601 1097 601C1005.7 601 914.3 601 823 601C731.7 601 640.3 601 548.8 601C457.3 601 365.7 601 274.2 601C182.7 601 91.3 601 45.7 601L0 601Z" fill="#5863F8" stroke-linecap="round" stroke-linejoin="miter"></path></svg>